<svg width="25" height="25" viewBox="0 0 25 25" fill="none" xmlns="http://www.w3.org/2000/svg">
<path d="M11.3652 0.0617714C7.66255 0.382477 4.19444 2.44857 2.11481 5.55696C-0.378275 9.27592 -0.686826 14.031 1.29407 18.0275C2.57764 20.6117 4.55236 22.5544 7.1627 23.8002C12.0008 26.1007 17.8324 25.0276 21.5288 21.1421C26.1571 16.2821 26.1571 8.73319 21.5288 3.87325C20.4859 2.78161 19.3751 1.97368 17.962 1.28292C16.4994 0.567501 15.0924 0.18512 13.4633 0.0494366C12.5685 -0.0184059 12.2476 -0.0184059 11.3652 0.0617714ZM13.2843 5.43978C13.4016 5.57546 13.4263 5.67414 13.4263 5.99485V6.38339L13.741 6.42657C14.1606 6.48207 14.9814 6.74727 15.401 6.95697C15.8083 7.16049 16.6722 7.7649 16.8697 7.98076C17.061 8.20279 17.0487 8.49266 16.8265 8.77019C16.0613 9.72615 15.8762 9.79399 15.2961 9.30059C15.0986 9.13407 14.7716 8.91204 14.5679 8.8072C14.1545 8.60367 13.5435 8.42482 13.4695 8.49266C13.4448 8.51733 13.4324 9.21425 13.4386 10.0407L13.4571 11.5394L13.9817 11.6442C15.3023 11.9094 16.4686 12.6187 17.061 13.5006C18.1471 15.1227 17.4189 17.0839 15.364 18.0892C14.9814 18.2742 14.2223 18.5209 13.6669 18.6381C13.5127 18.6689 13.5003 18.6998 13.4756 19.0821C13.451 19.4399 13.4263 19.5139 13.2782 19.6372C13.1239 19.7729 13.056 19.7852 12.4945 19.7852C11.9205 19.7852 11.865 19.7729 11.7292 19.6311C11.5997 19.5015 11.575 19.4275 11.575 19.0821V18.6813L11.3466 18.6443C10.1988 18.4531 9.07571 17.9165 8.29199 17.1826C8.04515 16.9544 7.99578 16.8742 7.99578 16.683C7.99578 16.498 8.05749 16.387 8.36604 16.0293C9.014 15.2707 9.12508 15.2522 9.75452 15.7579C9.99519 15.9491 10.3346 16.1711 10.5136 16.2575C10.9332 16.4487 11.4639 16.5905 11.5256 16.5288C11.5565 16.498 11.5688 15.8011 11.5626 14.9746L11.5441 13.4759L11.0072 13.3649C9.26084 13.0011 7.86619 11.9094 7.52679 10.6328C7.02694 8.75169 8.49564 7.03098 11.0813 6.46357L11.5441 6.36489L11.575 5.93317C11.5935 5.69881 11.6305 5.47061 11.6552 5.43361C11.7416 5.29793 12.0872 5.23625 12.6179 5.25475C13.093 5.26709 13.1486 5.28559 13.2843 5.43978Z" fill="#18FC8F"/>
<path d="M10.9269 8.52963C9.89019 8.80717 9.42737 9.28206 9.48908 10.0098C9.54462 10.6512 10.0383 11.1076 10.9084 11.305C11.6428 11.4715 11.5749 11.6195 11.5749 9.9173V8.43712L11.4083 8.44329C11.3095 8.44329 11.0997 8.48029 10.9269 8.52963Z" fill="#18FC8F"/>
<path d="M13.4263 15.5605V17.0592L13.6916 17.0161C14.4692 16.8927 15.1233 16.535 15.3887 16.0848C15.5861 15.7394 15.5553 15.2337 15.3146 14.913C14.9999 14.5059 14.3889 14.1975 13.6916 14.0989L13.4263 14.0619V15.5605Z" fill="#18FC8F"/>
</svg>
