<svg width="25" height="26" viewBox="0 0 25 26" fill="none" xmlns="http://www.w3.org/2000/svg">
<path d="M11.8193 0.615868C11.6197 0.652523 11.3439 0.736309 11.2031 0.799147C11.0622 0.861986 8.76764 2.04021 6.10922 3.41219C0.821711 6.14043 0.774763 6.16661 0.369837 6.8526C-0.0174832 7.49669 0.00012226 7.25058 0.00012226 13.0527C0.00012226 18.8548 -0.0116147 18.6087 0.369837 19.2475C0.780631 19.944 0.815842 19.9649 6.11509 22.6984C8.77938 24.0756 11.1033 25.2591 11.2794 25.3324C11.9953 25.6256 13.0047 25.6256 13.7265 25.3271C13.9084 25.2538 16.2324 24.0704 18.8967 22.6984C24.1959 19.9649 24.2194 19.9492 24.6302 19.2527C25.0175 18.6087 24.9999 18.8548 24.9999 13.0527C24.9999 7.25058 25.0116 7.49669 24.6302 6.85784C24.2135 6.1509 24.1959 6.14566 18.8967 3.40695C16.2324 2.03497 13.9378 0.861986 13.7969 0.799147C13.2512 0.558266 12.4883 0.484955 11.8193 0.615868ZM13.2864 1.57939C13.4331 1.63176 15.7042 2.79427 18.345 4.16101C21.7077 5.89955 23.2159 6.70598 23.3919 6.86307C23.5269 6.98351 23.7147 7.21916 23.8086 7.38673L23.9729 7.68521V13.0527V18.4201L23.8086 18.7186C23.7147 18.8862 23.5269 19.1218 23.3919 19.2423C23.2159 19.3994 21.7135 20.2058 18.3391 21.9496C15.6983 23.3111 13.4214 24.4788 13.2688 24.5364C12.8521 24.704 12.1068 24.6935 11.6784 24.5155C11.3322 24.3689 2.7055 19.9178 2.03062 19.5355C1.56701 19.2737 1.2149 18.881 1.07992 18.4725C1.0095 18.2421 0.997765 17.4723 1.0095 12.9427L1.02711 7.68521L1.19143 7.38673C1.28532 7.21916 1.47311 6.98351 1.60809 6.86307C1.78414 6.70598 3.29234 5.89955 6.69607 4.1453C9.35449 2.77333 11.5904 1.62128 11.6608 1.58987C12.0657 1.40659 12.8404 1.40135 13.2864 1.57939Z" fill="#FE3636"/>
<path d="M12.1948 2.37008C11.9366 2.43816 2.57048 7.29768 2.35335 7.47048C1.97776 7.77944 1.99537 7.47572 1.99537 13.0526C1.99537 18.6296 1.97776 18.3259 2.35335 18.6348C2.65264 18.8809 12.007 23.6933 12.3004 23.7509C12.4882 23.7928 12.6115 23.7823 12.8051 23.7247C13.1514 23.6252 22.3942 18.839 22.6466 18.6348C23.0222 18.3206 23.0046 18.6296 23.0046 13.0526C23.0046 7.47572 23.0222 7.78468 22.6466 7.47048C22.5351 7.38146 21.5081 6.82639 20.3637 6.23466C19.2194 5.64293 17.1067 4.55372 15.6689 3.8049C14.2312 3.06131 12.9636 2.42245 12.8521 2.39103C12.6173 2.31248 12.4237 2.30724 12.1948 2.37008ZM13.3392 5.63245C13.9025 5.86286 14.0962 6.09327 14.9236 7.54379C15.5868 8.70107 15.6924 8.85817 15.8333 8.88435C15.9213 8.90006 16.6548 8.99432 17.4647 9.09905C19.1079 9.30851 19.2135 9.32946 19.5656 9.51274C20.4107 9.95784 20.7393 10.9318 20.3109 11.7173C20.1466 12.0053 19.9588 12.1939 18.8966 13.0893C18.2159 13.6601 17.6642 14.1471 17.6642 14.1733C17.6642 14.1994 17.7816 14.8174 17.9283 15.5505C18.075 16.2784 18.1924 17.001 18.1924 17.1633C18.1924 17.7917 17.7699 18.3677 17.0891 18.6662C16.7429 18.8181 16.6431 18.839 16.2206 18.839H15.7394L14.1197 18.1216L12.4941 17.399L10.9859 18.0745C10.1526 18.4515 9.34858 18.7814 9.19013 18.8181C8.39202 18.9961 7.42959 18.5982 7.01293 17.9174C6.74297 17.4671 6.74884 17.1738 7.07161 15.5452L7.3533 14.1418L7.12443 13.9481C6.99532 13.8381 6.43781 13.3668 5.87444 12.8903C5.15261 12.2829 4.81811 11.9582 4.71248 11.7749C4.25474 10.9685 4.57163 9.96308 5.4343 9.51274C5.78641 9.32946 5.88031 9.30851 7.57043 9.09905C8.39202 8.99955 9.12558 8.9053 9.196 8.88959C9.2899 8.86864 9.4953 8.56492 10.0763 7.54903C10.98 5.96236 11.1737 5.75813 11.9425 5.52772C12.3063 5.42299 12.9401 5.47012 13.3392 5.63245Z" fill="#FE3636"/>
<path d="M12.1185 6.42321C11.8133 6.54889 11.6549 6.76358 10.8333 8.1984C10.3345 9.05719 9.98238 9.6175 9.90609 9.65416C9.83567 9.68558 8.96126 9.81649 7.95775 9.94741C6.00941 10.1935 5.88031 10.2302 5.65144 10.5391C5.50472 10.7329 5.46951 11.1204 5.58101 11.3403C5.61623 11.4136 6.25002 11.9792 6.98945 12.6023C7.74649 13.2464 8.34507 13.791 8.36855 13.8643C8.38615 13.9324 8.26291 14.676 8.0986 15.5139C7.77583 17.1162 7.76409 17.3571 7.96362 17.6032C8.11033 17.7813 8.53873 17.975 8.79108 17.975C8.92605 17.975 9.50703 17.7394 10.669 17.2157C11.5962 16.7968 12.4295 16.4564 12.5117 16.4564C12.5997 16.4564 13.4213 16.7968 14.3368 17.2157C15.5164 17.7499 16.068 17.975 16.2088 17.975C16.4847 17.975 16.9072 17.7708 17.0598 17.5613C17.1478 17.4514 17.1948 17.3048 17.1948 17.1738C17.1948 17.0586 17.0598 16.2889 16.8955 15.472C16.7311 14.6498 16.6138 13.9272 16.6314 13.8643C16.649 13.7963 17.2652 13.2412 17.9929 12.6233C18.7206 12.0106 19.3602 11.4398 19.4072 11.356C19.5187 11.1623 19.5187 10.801 19.4013 10.602C19.3074 10.4344 19.0727 10.2511 18.9083 10.204C18.8555 10.1883 17.9987 10.0678 17.0128 9.94217C16.0269 9.81649 15.1643 9.68558 15.0938 9.65416C15.0234 9.62274 14.6654 9.05196 14.1783 8.20887C13.7382 7.44434 13.3392 6.75835 13.2863 6.69027C13.169 6.52794 12.7523 6.3499 12.4941 6.3499C12.3826 6.35513 12.2183 6.38655 12.1185 6.42321Z" fill="#FE3636"/>
</svg>
