<svg width="23" height="23" viewBox="0 0 23 23" fill="none" xmlns="http://www.w3.org/2000/svg">
<path d="M11.1948 0.818417C10.9366 0.886492 1.57048 5.74601 1.35335 5.91882C0.977763 6.22777 0.995369 5.92405 0.995369 11.501C0.995369 17.0779 0.977763 16.7742 1.35335 17.0831C1.65264 17.3293 11.007 22.1416 11.3004 22.1993C11.4882 22.2411 11.6115 22.2307 11.8051 22.1731C12.1514 22.0736 21.3942 17.2874 21.6466 17.0831C22.0222 16.7689 22.0046 17.0779 22.0046 11.501C22.0046 5.92405 22.0222 6.23301 21.6466 5.91882C21.5351 5.82979 20.5081 5.27472 19.3637 4.68299C18.2194 4.09126 16.1067 3.00206 14.6689 2.25323C13.2312 1.50964 11.9636 0.870782 11.8521 0.839363C11.6173 0.760815 11.4237 0.755578 11.1948 0.818417ZM12.3392 4.08079C12.9025 4.3112 13.0962 4.5416 13.9236 5.99213C14.5868 7.14941 14.6924 7.3065 14.8333 7.33268C14.9213 7.34839 15.6549 7.44265 16.4647 7.54738C18.1079 7.75685 18.2135 7.77779 18.5656 7.96107C19.4107 8.40618 19.7393 9.38018 19.3109 10.1657C19.1466 10.4537 18.9588 10.6422 17.8966 11.5376C17.2159 12.1084 16.6642 12.5954 16.6642 12.6216C16.6642 12.6478 16.7816 13.2657 16.9283 13.9988C17.075 14.7267 17.1924 15.4493 17.1924 15.6117C17.1924 16.2401 16.7699 16.8161 16.0891 17.1146C15.7429 17.2664 15.6431 17.2874 15.2206 17.2874H14.7394L13.1197 16.57L11.4941 15.8473L9.98589 16.5228C9.15257 16.8999 8.34858 17.2298 8.19013 17.2664C7.39202 17.4445 6.42959 17.0465 6.01293 16.3657C5.74298 15.9154 5.74884 15.6221 6.07161 13.9936L6.3533 12.5902L6.12443 12.3964C5.99532 12.2865 5.43781 11.8152 4.87444 11.3386C4.15261 10.7312 3.81811 10.4065 3.71248 10.2233C3.25474 9.41683 3.57163 8.41141 4.4343 7.96107C4.78641 7.77779 4.88031 7.75685 6.57043 7.54738C7.39202 7.44789 8.12558 7.35363 8.196 7.33792C8.2899 7.31697 8.4953 7.01325 9.07628 5.99736C9.98002 4.41069 10.1737 4.20646 10.9425 3.97606C11.3063 3.87132 11.9401 3.91845 12.3392 4.08079Z" fill="#FFFF00"/>
<path d="M11.1185 4.87154C10.8133 4.99722 10.6549 5.21192 9.83331 6.64673C9.33449 7.50553 8.98238 8.06584 8.90609 8.10249C8.83567 8.13391 7.96126 8.26483 6.95775 8.39574C5.00941 8.64186 4.88031 8.67851 4.65144 8.98747C4.50472 9.18122 4.46951 9.56873 4.58101 9.78866C4.61623 9.86197 5.25002 10.4275 5.98945 11.0507C6.74649 11.6948 7.34507 12.2394 7.36855 12.3127C7.38615 12.3808 7.26291 13.1243 7.0986 13.9622C6.77583 15.5646 6.76409 15.8055 6.96362 16.0516C7.11033 16.2296 7.53873 16.4234 7.79108 16.4234C7.92605 16.4234 8.50703 16.1877 9.66899 15.6641C10.5962 15.2451 11.4295 14.9048 11.5117 14.9048C11.5997 14.9048 12.4213 15.2451 13.3368 15.6641C14.5164 16.1982 15.068 16.4234 15.2088 16.4234C15.4847 16.4234 15.9072 16.2191 16.0598 16.0097C16.1478 15.8997 16.1948 15.7531 16.1948 15.6222C16.1948 15.507 16.0598 14.7372 15.8955 13.9203C15.7311 13.0982 15.6138 12.3755 15.6314 12.3127C15.649 12.2446 16.2652 11.6895 16.9929 11.0716C17.7206 10.4589 18.3602 9.88816 18.4072 9.80437C18.5187 9.61062 18.5187 9.2493 18.4013 9.05031C18.3074 8.88274 18.0727 8.69946 17.9083 8.65233C17.8555 8.63662 16.9987 8.51618 16.0128 8.3905C15.0269 8.26483 14.1643 8.13391 14.0938 8.10249C14.0234 8.07107 13.6654 7.50029 13.1783 6.65721C12.7382 5.89267 12.3392 5.20668 12.2863 5.13861C12.169 4.97627 11.7523 4.79823 11.4941 4.79823C11.3826 4.80347 11.2183 4.83489 11.1185 4.87154Z" fill="#FFFF00"/>
</svg>
